# xmcd
#
# Track frame offsets:
#	150
#	8445
#	22187
#	38452
#	51242
#	64390
#	83660
#	98935
#	115132
#	131725
#	145132
#	160977
#	176537
#	194460
#	209612
#	224542
#	259765
#	263310
#	276117
#	290935
#
# Disc length: 4065 seconds
#
# Revision: 0
# Processed by: cddbd v1.4PL0 Copyright (c) Steve Scherf et al.
# Submitted via: audiograbber 1.81.02
#
DISCID=2d0fdf14
DTITLE=The Blues Brothers - The Definitive Collthe Blues Brothers - The Definit
DTITLE=ive Collection
DYEAR=1900
DGENRE=Blues
TTITLE0=Opening: I Can't Turn You Looseopening: I Can't Turn You Loose
TTITLE1=Hey Bartenderhey Bartender
TTITLE2=Messin' With The Kidmessin' With The Kid
TTITLE3=(I Got Everything I Need) Almost(I Got Everything I Need) Almost
TTITLE4=Rubber Biscuitrubber Biscuit
TTITLE5=I Don't Knowi Don't Know
TTITLE6=Soul Mansoul Man
TTITLE7=Who's Making Lovewho's Making Love
TTITLE8=Do You Love Me - Mother Popcorn (You Got To Have A Mother For Me)do You
TTITLE8=Love Me - Mother Popcorn (Y
TTITLE9=Guiltyguilty
TTITLE10=Riot In Cell Block Number Nineriot In Cell Block Number Nine
TTITLE11=From The Bottomfrom The Bottom
TTITLE12=Going Back To Miamigoing Back To Miami
TTITLE13=Everybody Needs Somebody To Love
TTITLE14=Expressway To Your Heart
TTITLE15=Sweet Home Chicago
TTITLE16=Closing: I Can't Turn You Loose
TTITLE17=Shake Your Tailfeather (Featuring Ray Charles)
TTITLE18=Think (Featuring Aretha Franklin)
TTITLE19=Gimme Some Lovin'
EXTD=
EXTT0=
EXTT1=
EXTT2=
EXTT3=
EXTT4=
EXTT5=
EXTT6=
EXTT7=
EXTT8=
EXTT9=
EXTT10=
EXTT11=
EXTT12=
EXTT13=
EXTT14=
EXTT15=
EXTT16=
EXTT17=
EXTT18=
EXTT19=
PLAYORDER=
